<svg xmlns="http://www.w3.org/2000/svg" xmlns:xlink="http://www.w3.org/1999/xlink" viewBox="0 0 48 48"><defs><style>.cls-1{fill:url(#linear-gradient);}.cls-2{fill:url(#linear-gradient-2);}.cls-3{fill:url(#linear-gradient-3);}.cls-4{fill:url(#linear-gradient-4);}.cls-5{fill:url(#linear-gradient-5);}</style><linearGradient id="linear-gradient" x1="24.63" y1="47.35" x2="24.63" y2="38.93" gradientUnits="userSpaceOnUse"><stop offset="0" stop-color="#fff"/><stop offset="0.52" stop-color="#cce2e6"/><stop offset="1" stop-color="#8fa1bb"/></linearGradient><linearGradient id="linear-gradient-2" x1="24.63" y1="30.31" x2="24.63" y2="-24.54" gradientUnits="userSpaceOnUse"><stop offset="0" stop-color="#273a9b"/><stop offset="0.56" stop-color="#202f65"/><stop offset="1" stop-color="#021e2f"/></linearGradient><linearGradient id="linear-gradient-3" x1="28.88" y1="60.75" x2="28.88" y2="-37.96" xlink:href="#linear-gradient-2"/><linearGradient id="linear-gradient-4" x1="24.63" y1="50.87" x2="24.63" y2="-0.13" gradientUnits="userSpaceOnUse"><stop offset="0" stop-color="#27e9de"/><stop offset="0.52" stop-color="#03a4ec"/><stop offset="1" stop-color="#2547a8"/></linearGradient><linearGradient id="linear-gradient-5" x1="24.62" y1="4.99" x2="24.62" y2="23.02" xlink:href="#linear-gradient-4"/></defs><title>dental, location, dentist, tooth, destination</title><g id="ART"><ellipse class="cls-1" cx="24.63" cy="43.98" rx="10.5" ry="1.5"/><path class="cls-2" d="M36.76,32.82,25.82,43.77a1.69,1.69,0,0,1-2.39,0L12.49,32.82a17.16,17.16,0,0,1,0-24.27h0a17.16,17.16,0,0,1,24.27,0h0A17.16,17.16,0,0,1,36.76,32.82Z"/><path class="cls-3" d="M16.08,5.82h0a14.27,14.27,0,0,1,8.61,13.1V44.26a1.68,1.68,0,0,0,1.13-.49L36.44,33.15c6.65-6.65,7.1-17.51.6-24.31A17.15,17.15,0,0,0,16.08,5.82Z"/><path class="cls-4" d="M28.47,12.52a4.84,4.84,0,0,0-3.58,1.64.37.37,0,0,1-.54,0,4.84,4.84,0,0,0-3.58-1.64c-2.83,0-5.13,2.58-5.13,5.75a6.28,6.28,0,0,0,.88,3.24,8,8,0,0,1,1.15,3.17,16.17,16.17,0,0,0,1.46,5.07,1.23,1.23,0,0,0,1,.71,1.18,1.18,0,0,0,1.28-1.18v-.41A3.33,3.33,0,0,1,23,26a3.21,3.21,0,0,1,3.34,0,3.33,3.33,0,0,1,1.54,2.86v.3a1.25,1.25,0,0,0,.92,1.27,1.18,1.18,0,0,0,1.33-.64,16.17,16.17,0,0,0,1.5-5.19,6.48,6.48,0,0,1,1-2.88,6.25,6.25,0,0,0,1-3.47C33.6,15.1,31.3,12.52,28.47,12.52Z"/><path class="cls-5" d="M33.57,17.66c0-.07,0-.14,0-.21s0-.25-.05-.37a5.31,5.31,0,0,0-5-4.56,4.79,4.79,0,0,0-3.36,1.42.68.68,0,0,1-1,0,4.79,4.79,0,0,0-3.36-1.42,5.31,5.31,0,0,0-5,4.56c0,.12,0,.25-.05.37s0,.14,0,.21,0,.42,0,.63c0,0,0,0,0,.05s0,.32,0,.48,0,.18,0,.28v0c0-.12,0-.25.05-.37a5.93,5.93,0,0,1,1.57-3.05.55.55,0,0,0,.38.15.54.54,0,0,0,.45-.25.94.94,0,0,0,1.34-.8l.14,0a.65.65,0,0,0,.64-.59l.5,0a4.84,4.84,0,0,1,3.58,1.64.37.37,0,0,0,.54,0,4.84,4.84,0,0,1,3.58-1.64,5.31,5.31,0,0,1,5,4.56c0,.12,0,.25.05.37v0c0-.09,0-.17,0-.26s0-.31,0-.47,0,0,0-.07C33.6,18.07,33.59,17.86,33.57,17.66Z"/></g></svg>