<?xml version="1.0" encoding="UTF-8"?>
<!DOCTYPE svg PUBLIC "-//W3C//DTD SVG 1.1//EN" "http://www.w3.org/Graphics/SVG/1.1/DTD/svg11.dtd">
<!-- Creator: CorelDRAW -->
<svg xmlns="http://www.w3.org/2000/svg" xml:space="preserve" width="2048px" height="2048px" style="shape-rendering:geometricPrecision; text-rendering:geometricPrecision; image-rendering:optimizeQuality; fill-rule:evenodd; clip-rule:evenodd"
viewBox="0 0 2048 2048"
 xmlns:xlink="http://www.w3.org/1999/xlink">
 <defs>
  <style type="text/css">
   <![CDATA[
    .fil1 {fill:none}
    .fil0 {fill:#212121;fill-rule:nonzero}
   ]]>
  </style>
 </defs>
 <g id="Layer_x0020_1">
  <metadata id="CorelCorpID_0Corel-Layer"/>
  <path class="fil0" d="M1213.95 604.611c5.31496,16.7752 23.2252,26.0658 40.0004,20.7508 16.7752,-5.31496 26.0658,-23.2252 20.7508,-40.0004 -11.3847,-35.7721 -13.0288,-73.1894 -5.57599,-108.786 0.897638,-4.28622 1.92992,-8.54646 3.09449,-12.7736 15.991,38.6126 44.1307,69.5658 78.6733,89.5335l-0.0318898 0.0543308 0.0389764 0.022441 -0.0377953 0.0661418c0.721654,0.416929 1.45394,0.801969 2.19213,1.1563 40.2414,22.5166 88.8036,30.1796 136.787,17.8512 1.30866,-0.263386 2.59016,-0.607087 3.83504,-1.02638 48.4926,-13.552 87.1949,-45.3355 110.692,-85.9784l0.0543308 0.0318898 0.022441 -0.0389764 0.0661418 0.0389764c0.418111,-0.724016 0.804331,-1.45748 1.15984,-2.19921 19.0701,-34.0807 27.4819,-74.1319 22.1221,-114.744 1.99606,1.96654 3.95788,3.97205 5.87953,6.02008 23.191,24.711 40.8154,55.4079 50.2382,90.5741 15.2528,56.9268 6.01654,114.602 -21.2469,161.824l27.6248 16.0004 -27.7134 -16.0004c-0.467717,0.811418 -0.894095,1.63465 -1.28386,2.46732 -27.3756,46.0536 -72.1406,81.9048 -128.151,96.9119 -10.011,2.68229 -19.6429,4.58741 -28.8555,5.74843 -9.75473,1.22953 -19.4917,1.76693 -29.1496,1.64882 -17.6043,-0.206693 -32.0445,13.8957 -32.2512,31.5 -0.206693,17.6043 13.8957,32.0445 31.5,32.2512 12.5303,0.154725 25.1906,-0.548032 37.9016,-2.14961 12.8244,-1.61575 25.3099,-4.02166 37.3548,-7.24843 72.7264,-19.4858 130.948,-66.2741 166.624,-126.437 0.616536,-0.858662 1.19764,-1.7563 1.7374,-2.69173l-0.0661418 -0.0389764c35.4733,-61.4658 47.5181,-136.416 27.7252,-210.286 -12.2209,-45.6083 -35.1992,-85.5497 -65.4886,-117.825 -30.8374,-32.8583 -69.2457,-57.6839 -111.569,-72.3721 -11.237,-4.6878 -24.6662,-2.72126 -34.1551,6.11811 -12.9307,12.0461 -13.6476,32.2961 -1.60158,45.2268l0.0519685 -0.0484252c6.63308,7.12205 12.4583,15.0969 17.2772,23.8122 4.70552,8.50749 8.46615,17.7319 11.1012,27.5681 8.53347,31.8532 3.65433,64.0961 -11.1721,90.7205 -0.35315,0.536221 -0.69567,1.08425 -1.02047,1.64764l27.7134 16.0004 -27.6248 -15.8752c-15.3106,26.5193 -40.6902,47.3044 -72.5989,56.2359 -0.46063,0.101575 -0.920079,0.212599 -1.37953,0.335433l0.0106299 0.0401575c-31.8473,8.52757 -64.0831,3.64488 -90.7028,-11.1803 -0.533859,-0.351969 -1.08071,-0.693308 -1.64173,-1.01693l-15.9992 27.7134 15.8752 -27.6248c-26.5181,-15.3095 -47.302,-40.6866 -56.2347,-72.5906 -0.101575,-0.462992 -0.212599,-0.924804 -0.336614,-1.38662l-0.0401575 0.0106299c-2.68701,-10.0311 -4.06418,-19.8366 -4.2378,-29.2595 -0.170079,-9.24568 0.759449,-18.4831 2.69646,-27.5433 3.41339,-11.5807 0.0980316,-24.6083 -9.56576,-33.104 -13.2732,-11.6681 -33.4937,-10.3665 -45.1618,2.9067l0.0200788 0.0177165c-32.2359,36.678 -53.5985,80.2926 -63.2504,126.385 -9.63898,46.0323 -7.47402,94.5355 7.32402,141.034z"/>
  <path class="fil0" d="M1407.13 677.672l-0.00236221 -0.00236221c-23.9339,-23.9339 -55.3099,-35.902 -86.6859,-35.902 -31.376,0 -62.752,11.9681 -86.6859,35.902l-0.00236221 0.00236221 -0.00236221 0.00236221c-23.9339,23.9339 -35.902,55.3099 -35.902,86.6859 0,31.376 11.9681,62.752 35.902,86.6859l0.00236221 0.00236221c23.9351,23.9339 55.3122,35.9032 86.6883,35.9032 31.376,0 62.7532,-11.9693 86.6883,-35.9032 23.9351,-23.9351 35.9032,-55.3111 35.9032,-86.6883 0,-31.3772 -11.9681,-62.7544 -35.9032,-86.6883zm45.2481 -45.2528l0.00236221 0.00236221c36.4359,36.4347 54.6544,84.1879 54.6544,131.939 0,47.7485 -18.2185,95.5028 -54.6544,131.939 -36.4359,36.4347 -84.189,54.6544 -131.939,54.6544 -47.7496,0 -95.5028,-18.2197 -131.939,-54.6544l-0.00236221 -0.00236221c-36.4347,-36.4347 -54.6532,-84.189 -54.6532,-131.936 0,-47.7473 18.2185,-95.5016 54.6532,-131.936l0.00236221 -0.00236221 0.00236221 -0.00236221c36.4347,-36.4347 84.189,-54.6532 131.936,-54.6532 47.7473,0 95.5016,18.2185 131.936,54.6532z"/>
  <path class="fil0" d="M1414.97 918.626c8.00788,-15.6709 1.79646,-34.8673 -13.8744,-42.8752 -15.6709,-8.00788 -34.8673,-1.79646 -42.8752,13.8744l-187.065 364.284 -0.119291 -0.0614174c-0.459449,0.892914 -0.869292,1.79764 -1.23662,2.71181 -0.314173,0.468898 -0.650788,0.943702 -1.00866,1.42559 -0.86693,1.16575 -1.8815,2.30197 -3.02126,3.39922l-0.0590552 -0.0614174c-0.222047,0.21378 -0.440552,0.431103 -0.655512,0.649607l-457.87 457.87c-5.43662,5.43662 -12.5705,8.1567 -19.7043,8.1567 -7.13386,0 -14.2677,-2.72008 -19.7043,-8.1567 -5.43662,-5.43662 -8.1567,-12.5705 -8.1567,-19.7043 0,-7.13386 2.72008,-14.2677 8.1567,-19.7043l452.724 -452.724 0.00236221 0.00236221c3.16654,-3.16654 5.52874,-6.8315 7.09016,-10.7433l153.565 -299.049c8.00788,-15.6709 1.79646,-34.8673 -13.8744,-42.8752 -15.6709,-8.00788 -34.8673,-1.79646 -42.8752,13.8744l-152.4 296.783 -449.482 449.482c-17.9374,17.9374 -26.9079,41.4473 -26.9079,64.9548 0,23.5051 8.97048,47.0174 26.9079,64.9548 17.9374,17.9374 41.4496,26.9079 64.9548,26.9079 23.5075,0 47.0174,-8.97048 64.9548,-26.9079l458.06 -458.06 -0.0555119 -0.0555119c3.40158,-3.31063 6.61654,-6.97914 9.60119,-10.9913 2.21575,-2.97874 4.31575,-6.22087 6.27638,-9.72166 0.633071,-0.955513 1.22362,-1.95473 1.76339,-2.99646 0.725197,-1.39961 1.33347,-2.82756 1.83543,-4.27441l185.054 -360.368z"/>
  <path class="fil0" d="M1195.19 726.571c15.6709,-8.00788 21.8823,-27.2044 13.8744,-42.8752 -8.00788,-15.6709 -27.2044,-21.8823 -42.8752,-13.8744l-360.376 185.058c-1.47756,0.511418 -2.93504,1.13622 -4.363,1.8815 -1.01811,0.531496 -1.9937,1.10906 -2.92914,1.73032 -3.4937,1.95709 -6.72875,4.05237 -9.70276,6.26457 -4.01339,2.98465 -7.68071,6.19961 -10.9925,9.60237l-0.0555119 -0.0555119 -458.06 458.059c-17.9374,17.9398 -26.9079,41.4496 -26.9079,64.9548 0,23.5051 8.97048,47.0174 26.9079,64.9548l0.0011811 0.0011811c17.9374,17.9374 41.4485,26.9079 64.9536,26.9079 23.5075,0 47.0162,-8.97048 64.9536,-26.9079l0.0011811 -0.0011811 449.482 -449.482 296.724 -152.369c15.6709,-8.00788 21.8823,-27.2044 13.8744,-42.8752 -8.00788,-15.6709 -27.2044,-21.8823 -42.8752,-13.8744l-298.99 153.534c-3.91181,1.56142 -7.57678,3.92363 -10.7433,7.09016l0.00236221 0.00236221 -452.724 452.724 -0.0011811 0.0011811c-5.43662,5.43662 -12.5693,8.1567 -19.7032,8.1567 -7.13386,0 -14.2665,-2.72008 -19.7032,-8.1567l-0.0011811 -0.0011811c-5.43662,-5.43662 -8.1567,-12.5705 -8.1567,-19.7043 0,-7.13386 2.72008,-14.2665 8.1567,-19.7043l457.835 -457.833c0.232677,-0.227953 0.464174,-0.459449 0.690945,-0.69567l-0.0625985 -0.0590552c1.09606,-1.13858 2.23229,-2.15197 3.39567,-3.01772 0.480709,-0.357874 0.956694,-0.694489 1.42441,-1.00748 0.914174,-0.367323 1.8189,-0.778347 2.71181,-1.23662l-0.0614174 -0.120473 364.296 -187.07z"/>
 </g>
 <rect class="fil1" width="2048" height="2048"/>
</svg>
