<svg xmlns="http://www.w3.org/2000/svg" width="128" height="128" viewBox="0 0 128 128">
  <title>DENTAL CARE</title>
  <g>
    <path d="M78.54,68.068a13.376,13.376,0,0,0-4.5,10.1c.01.25.01.5.01.739A26,26,0,0,1,65.12,98.9a2.623,2.623,0,0,1-4.29-2.06c0-.35.01-.69.01-1.04,0-13.47-3.98-24.391-8.89-24.391S43.06,82.328,43.06,95.8c0,.35.01.69.01,1.04a2.623,2.623,0,0,1-4.29,2.06,26,26,0,0,1-8.93-19.991c0-.239,0-.489.01-.739a13.376,13.376,0,0,0-4.5-10.1A20.19,20.19,0,0,1,19,53.208c0-10.88,8.27-19.7,18.46-19.7a17.582,17.582,0,0,1,10.85,3.76,5.944,5.944,0,0,0,7.28,0,17.582,17.582,0,0,1,10.85-3.76q.435,0,.87.03a16.575,16.575,0,0,0,16.03,27.59A19.514,19.514,0,0,1,78.54,68.068Z" fill="#37d4e9"/>
    <path d="M92.73,54.668c-.12.18-.25.35-.39.53a16.032,16.032,0,0,1-1.4,1.6,16.2,16.2,0,0,1-1.6,1.4c-.18.13-.35.27-.53.39a16.321,16.321,0,0,1-5.47,2.54,16.575,16.575,0,0,1-16.03-27.59c.06-.07.12-.131.18-.19a16.578,16.578,0,0,1,25.24,21.32Z" fill="#4453e2"/>
    <rect x="96.806" y="56.97" width="7.577" height="18.959" rx="2.356" transform="translate(-17.524 90.594) rotate(-45)" fill="#ffc26f"/>
    <path d="M92.342,55.2l3.049,3.049-3,3L89.339,58.2a16.254,16.254,0,0,0,3-3Z" fill="#f89068"/>
  </g>
  <path d="M77.463,35.357a1.75,1.75,0,0,1,1.75-1.749h0A11.52,11.52,0,0,1,90.673,44.892s0,.09,0,.18a1.75,1.75,0,1,1-3.5,0c0-.033,0-.092,0-.125a8,8,0,0,0-7.962-7.839A1.75,1.75,0,0,1,77.463,35.357ZM29.032,51.811a8.237,8.237,0,0,1,8.228-8.228,1.75,1.75,0,0,0,0-3.5A11.741,11.741,0,0,0,25.532,51.811a1.75,1.75,0,0,0,3.5,0ZM21.45,63.17a1.75,1.75,0,0,0-.481,2.428c.308.461.634.907.974,1.34a1.75,1.75,0,0,0,2.75-2.165q-.427-.543-.816-1.122A1.749,1.749,0,0,0,21.45,63.17ZM37.46,31.757a19.285,19.285,0,0,1,11.924,4.129,4.206,4.206,0,0,0,5.136,0,19.285,19.285,0,0,1,11.92-4.125c.065,0,.131.006.2.007A18.306,18.306,0,0,1,94.606,54.985l1.368,1.368a4.093,4.093,0,0,1,3.5,1.143L109.547,67.57a4.111,4.111,0,0,1,0,5.807L107.522,75.4a4.108,4.108,0,0,1-5.807,0L91.642,65.329a4.09,4.09,0,0,1-1.144-3.5L89.13,60.464a17.867,17.867,0,0,1-4.514,2.1,21.307,21.307,0,0,1-4.89,6.787,11.694,11.694,0,0,0-3.936,8.768c.009.25.01.524.01.786a27.587,27.587,0,0,1-9.556,21.331,4.373,4.373,0,0,1-7.164-3.426l.01-1.016c0-14.026-4.158-22.639-7.14-22.639S44.81,81.771,44.81,95.8l.01,1.04a4.327,4.327,0,0,1-2.5,3.989,4.394,4.394,0,0,1-1.888.431,4.3,4.3,0,0,1-2.772-1.017A27.586,27.586,0,0,1,28.1,78.908c0-.262,0-.536.011-.809a10.432,10.432,0,0,0-.33-2.86,1.75,1.75,0,1,1,3.389-.871,13.924,13.924,0,0,1,.439,3.845c-.009.25-.009.476-.009.7a24.428,24.428,0,0,0,8.3,18.648.816.816,0,0,0,.911.109.854.854,0,0,0,.505-.8L41.31,95.8c0-12.672,3.729-26.139,10.64-26.139S62.59,83.125,62.59,95.8l-.01,1.04a.868.868,0,0,0,.505.828.832.832,0,0,0,.913-.11,24.426,24.426,0,0,0,8.3-18.647c0-.219,0-.445-.008-.672a15.191,15.191,0,0,1,5.059-11.452,17.539,17.539,0,0,0,2.832-3.418c-.311.015-.623.029-.933.029A18.3,18.3,0,0,1,63.593,35.523a15.948,15.948,0,0,0-6.929,3.126,7.711,7.711,0,0,1-9.423,0,15.819,15.819,0,0,0-9.781-3.4c-9.214,0-16.71,8.053-16.71,17.951a1.75,1.75,0,0,1-3.5,0C17.25,41.38,26.316,31.757,37.46,31.757ZM92.916,58.245l-.478-.479c-.063.066-.128.13-.192.2-.024.024-.045.05-.069.074-.048.047-.092.087-.139.133s-.085.085-.129.126l.479.479ZM94.116,62a.6.6,0,0,0,0,.857l10.073,10.074a.608.608,0,0,0,.858,0l2.026-2.026a.606.606,0,0,0,0-.857L97,59.971a.607.607,0,0,0-.857,0ZM68.729,55.561A14.9,14.9,0,0,0,82.9,59.433a14.535,14.535,0,0,0,4.889-2.269c.129-.088.206-.147.283-.206l.22-.165q.349-.267.692-.567c.08-.071.172-.162.256-.239.153-.141.307-.279.457-.429q.347-.346.659-.7c.2-.233.4-.474.589-.72.122-.158.228-.294.325-.439l.03-.044A14.829,14.829,0,0,0,68.727,34.586l-.09.093c-.023.026-.046.051-.07.076A14.9,14.9,0,0,0,68.729,55.561Z" fill="#13134c"/>
</svg>
